<?xml version="1.0" standalone="no"?>
<!DOCTYPE svg PUBLIC "-//W3C//DTD SVG 20010904//EN"
 "http://www.w3.org/TR/2001/REC-SVG-20010904/DTD/svg10.dtd">
<svg version="1.0" xmlns="http://www.w3.org/2000/svg"
 width="250.000000pt" height="250.000000pt" viewBox="0 0 250.000000 250.000000"
 preserveAspectRatio="xMidYMid meet">
<metadata>
Created by potrace 1.14, written by Peter Selinger 2001-2017
</metadata>
<g transform="translate(0.000000,250.000000) scale(0.100000,-0.100000)"
fill="#000000" stroke="none">
<path d="M0 1250 l0 -1250 1250 0 1250 0 0 1250 0 1250 -1250 0 -1250 0 0
-1250z m1111 358 c66 -22 106 -71 108 -133 1 -16 -5 -13 -36 17 -54 51 -98 71
-145 65 -82 -11 -122 -64 -122 -162 -1 -85 24 -128 164 -287 118 -134 121
-138 107 -163 l-13 -27 -122 139 c-153 172 -187 236 -186 338 1 106 57 194
132 211 15 3 32 7 37 9 20 7 43 5 76 -7z m409 -13 c66 -34 103 -105 104 -201
1 -63 -3 -79 -34 -138 -21 -40 -81 -119 -150 -196 -102 -115 -116 -128 -127
-113 -7 9 -13 22 -13 28 0 6 52 69 115 140 135 152 160 195 160 280 0 72 -24
119 -75 146 -62 33 -119 20 -189 -45 l-34 -31 7 27 c16 70 37 97 91 116 35 13
108 6 145 -13z"/>
</g>
</svg>
